<?xml version="1.0" encoding="UTF-8" standalone="no"?>
<svg
   version="1.1"
   width="500"
   height="500"
   viewBox="0 0 500 500"
   id="svg6"
   sodipodi:docname="aes-logo-final.svg"
   inkscape:version="1.4.2 (f4327f4, 2025-05-13)"
   xmlns:inkscape="http://www.inkscape.org/namespaces/inkscape"
   xmlns:sodipodi="http://sodipodi.sourceforge.net/DTD/sodipodi-0.dtd"
   xmlns="http://www.w3.org/2000/svg"
   xmlns:svg="http://www.w3.org/2000/svg">
  <sodipodi:namedview
     id="namedview6"
     pagecolor="#ffffff"
     bordercolor="#000000"
     borderopacity="0.25"
     inkscape:showpageshadow="2"
     inkscape:pageopacity="0.0"
     inkscape:pagecheckerboard="0"
     inkscape:deskcolor="#d1d1d1"
     inkscape:zoom="2.426"
     inkscape:cx="138.91179"
     inkscape:cy="257.83182"
     inkscape:window-width="2880"
     inkscape:window-height="1514"
     inkscape:window-x="3829"
     inkscape:window-y="-11"
     inkscape:window-maximized="1"
     inkscape:current-layer="svg6" />
  <defs
     id="defs2">
    <linearGradient
       id="bgGrad"
       x1="0%"
       y1="0%"
       x2="100%"
       y2="100%">
      <stop
         offset="0%"
         stop-color="#0c1a33"
         id="stop1" />
      <stop
         offset="100%"
         stop-color="#040a17"
         id="stop2" />
    </linearGradient>
  </defs>
  <rect
     x="1"
     y="1"
     width="498"
     height="498"
     rx="135"
     ry="135"
     fill="url(#bgGrad)"
     id="rect2" />
  <path
     fill="#ffffff"
     stroke="none"
     d=" M130.185776,172.069305   C131.192154,170.948898 132.198547,169.828491 133.717255,168.137711   C135.740143,171.735428 137.409622,174.704605 139.395630,178.213898   C140.084854,179.243454 140.457520,179.732925 140.830185,180.222397   C140.830185,180.222397 140.881912,180.133118 140.867676,180.496719   C147.847214,193.594910 154.841003,206.329498 161.912857,219.317734   C162.385956,220.144592 162.780991,220.717804 163.235733,221.661865   C168.500549,231.418915 173.705673,240.805130 178.990173,250.534851   C179.925476,252.253036 180.781418,253.627701 181.678986,255.319977   C184.436432,260.516998 187.152252,265.396393 189.923172,270.604980   C191.406601,272.696411 192.834930,274.458649 194.285187,276.272095   C194.307114,276.323303 194.234604,276.415619 193.907883,276.774323   C194.974228,279.784363 196.367310,282.435699 197.865707,285.402954   C198.886520,287.185730 199.802017,288.652618 200.785217,290.440674   C201.494781,291.863770 202.136627,292.965668 202.858093,294.411987   C204.522949,297.549866 206.108185,300.343323 207.768692,303.460022   C208.543854,304.862976 209.243759,305.942657 209.994064,307.351929   C210.663284,308.544769 211.282104,309.408081 211.880310,310.473633   C211.859695,310.675873 212.104721,311.000336 212.104721,311.000336   C218.865265,323.521057 225.626663,336.041351 232.385086,348.563232   C233.081497,349.853546 233.760025,351.153534 234.799561,353.114319   C223.573181,353.114319 213.004791,353.186432 202.440750,353.005524   C201.355927,352.986938 199.903564,351.679352 199.286194,350.592468   C192.249481,338.204346 185.390671,325.715302 178.384537,313.309570   C172.772888,303.373077 167.024231,293.513916 161.203598,282.948303   C151.932419,265.721588 142.794022,249.167038 133.184296,231.758652   C123.459137,249.220749 114.330299,265.612122 104.976624,282.248016   C104.421989,283.296326 104.092194,284.100159 103.449432,285.039978   C101.028107,289.093262 98.919731,293.010559 96.570442,297.065063   C96.192665,297.729187 96.055801,298.256134 95.641922,298.994812   C91.538582,305.948364 87.712250,312.690155 83.647362,319.852234   C87.073708,319.852234 89.537735,319.852234 92.331863,319.924866   C93.107391,319.949463 93.552834,319.901428 94.461807,319.927856   C102.950737,319.950867 110.976135,319.899384 119.450630,319.921417   C122.932625,319.946442 125.965515,319.897980 129.410843,319.924469   C131.215973,319.949249 132.608688,319.899078 134.372498,319.921814   C135.495209,319.945892 136.246796,319.897034 137.360641,319.923523   C139.126175,321.047424 140.529480,322.096008 141.932785,323.144592   C146.133652,330.793274 150.352646,338.432098 154.523697,346.096985   C155.689911,348.240082 156.714737,350.460144 157.976501,352.989929   C115.421783,352.989929 73.364464,352.989929 29.827137,352.989929   C33.184845,347.143066 36.186455,341.916290 39.440460,336.246033   C39.786724,335.611725 39.815269,335.411652 39.778507,335.202332   C40.861492,333.391724 41.944477,331.581116 43.375366,329.216217   C44.204933,327.179749 44.686600,325.697601 45.168266,324.215424   C49.043751,317.981812 52.992821,311.792297 56.767273,305.498108   C59.052711,301.686951 61.067677,297.713623 63.521717,293.229004   C68.903198,283.452332 73.967117,274.259735 79.288857,264.846741   C80.290512,263.255615 81.034348,261.884857 81.912247,260.183472   C82.300751,259.132996 82.468216,258.366821 82.823280,257.700653   C85.912521,251.904907 89.035400,246.127075 92.475708,240.220688   C94.189186,237.731003 95.575241,235.364548 97.219162,232.727707   C99.564644,228.637955 101.652260,224.818573 103.952744,220.713181   C111.406364,207.376801 118.647125,194.326416 126.035309,181.143906   C127.123085,179.008133 128.063431,177.004501 129.078796,174.674530   C129.497803,173.588562 129.841782,172.828934 130.185776,172.069305  z"
     id="path2" />
  <path
     fill="#ffffff"
     stroke="none"
     d="m 348.9986,167.82733 c 8.18103,0.75871 16.12238,-0.92599 24.14202,-0.42781 11.41229,0.3738 23.10778,-0.0361 34.32081,0.76546 14.69027,3.07982 29.26259,12.50084 34.15226,27.26812 2.26983,4.10871 2.89085,7.45515 -2.96271,6.01654 -23.25951,0.27666 -46.53384,0.28997 -69.7834,0.13024 -9.18685,0.28337 -19.46384,2.02047 -23.91311,11.25596 -7.00244,11.18113 0.93243,27.05436 13.72421,29.12718 14.90628,1.89988 30.03875,-0.39336 44.97586,1.00461 24.66973,2.52886 45.97688,23.99989 47.18796,48.98382 3.38023,28.13069 -18.04777,57.13255 -46.5346,60.43071 -13.65569,1.26843 -27.48198,0.93663 -41.15661,0.36968 -6.08918,-3.4626 -7.57858,-11.55468 -11.50439,-17.10578 -1.77025,-4.83244 -8.40865,-12.34327 -6.98125,-15.4353 18.06074,-0.744 36.19516,0.016 54.24074,-0.55939 12.38901,-1.43474 22.0771,-14.33504 18.74855,-26.63555 -1.63206,-11.06339 -13.37553,-17.69298 -23.91332,-16.79019 -12.13667,-0.33378 -24.39084,0.2687 -36.45348,-0.62758 -9.65355,-2.99816 -20.68397,-3.77988 -28.0567,-11.47465 -7.84511,-6.94404 -15.36057,-15.08551 -17.33374,-25.76003 -2.77344,-8.02199 -2.0608,-16.38885 -1.38356,-24.67077 1.66439,-12.7727 8.01529,-25.30812 18.81857,-32.70792 5.95828,-5.40019 12.31529,-9.8524 19.66589,-13.15735 z"
     id="path3" />
  <path
     fill="#0d6cf5"
     stroke="none"
     d=" M244.699371,321.231934   C244.665543,321.018860 244.808792,320.779846 245.065277,320.689819   C245.880081,320.451721 246.438400,320.303650 247.327057,320.258911   C248.106003,320.282288 248.554642,320.202393 249.454651,320.232056   C254.860001,320.170288 259.813995,319.998932 264.767975,319.827576   C279.539948,319.998016 294.311890,320.168457 309.541382,320.224976   C310.820923,320.150360 311.661407,320.320374 312.462067,320.207581   C317.461609,319.503265 320.697784,320.893341 322.910492,326.079773   C326.162506,333.702240 330.517181,340.852661 334.358185,348.227081   C335.025696,349.508698 335.476440,350.903229 336.278564,352.857819   C334.192078,353.013824 332.621460,353.232666 331.050751,353.233398   C309.568726,353.243530 288.086090,353.137573 266.605347,353.296783   C263.091431,353.322815 261.148224,352.152863 259.604126,349.114746   C255.990952,342.005646 252.107483,335.033905 247.976471,327.528564   C247.113342,326.360626 246.607224,325.670624 246.079315,324.661987   C245.697174,323.840607 245.336823,323.337860 244.908691,322.609985   C244.840912,322.384827 244.404556,322.209442 244.404556,322.209442   C244.673569,322.023102 244.783112,321.768280 244.699371,321.231934  z"
     id="path4" />
  <path
     fill="#0d6cf5"
     stroke="none"
     d=" M307.126495,172.024231   C307.126495,172.024231 306.874115,172.262802 306.523438,172.567932   C305.419556,174.228195 304.666351,175.583298 303.947784,176.971329   C303.982422,177.004257 303.935608,176.921127 303.624359,177.059631   C301.877625,179.800171 300.442139,182.402191 299.003326,185.002106   C299.000000,185.000000 299.004974,185.006607 298.702942,185.173645   C296.223114,190.204086 294.045288,195.067505 291.867432,199.930939   C291.119537,200.652603 290.371674,201.374268 288.888031,202.128479   C255.601334,202.137573 223.050247,202.150467 190.499695,202.023849   C187.801743,202.013367 185.107468,201.058685 182.352203,200.199203   C180.891724,197.536728 179.490509,195.217743 178.089294,192.898758   C178.089294,192.898758 178.033890,193.003830 178.049545,192.608139   C177.135300,190.631592 176.205399,189.050751 175.275482,187.469910   C175.275482,187.469910 175.265793,187.178604 175.127838,186.723572   C172.960693,182.757538 170.931473,179.246536 168.902252,175.735550   C168.395401,174.678375 167.888550,173.621201 167.127106,171.895691   C164.888367,165.846451 169.327988,167.723373 171.239502,167.719345   C215.443619,167.626114 259.647980,167.659958 303.852325,167.689209   C305.286743,167.690155 306.721069,167.890701 308.389587,168.015732   C307.892883,169.592072 307.509705,170.808151 307.126495,172.024231  z"
     id="path5" />
  <path
     fill="#0d6cf5"
     stroke="none"
     d=" M215.111847,264.254150   C211.504898,257.423859 208.138138,250.840332 204.193909,243.127609   C210.533066,243.127609 215.772797,243.125076 221.012543,243.128052   C242.494019,243.140289 263.975922,243.225861 285.456512,243.094116   C288.880005,243.073135 290.099030,244.195175 291.340057,247.451569   C294.823639,256.592194 299.060120,265.445923 303.233521,274.705231   C303.451660,275.210907 303.435913,275.424164 303.279602,276.056732   C303.055115,276.628784 302.971191,276.781494 302.887268,276.934204   C302.887268,276.934204 302.971191,276.967316 302.557556,276.879974   C301.095306,276.911530 300.046692,277.030426 298.671936,277.034668   C297.892273,276.963562 297.438751,277.007141 296.618835,276.942810   C295.501221,276.920319 294.750000,277.005676 293.998749,277.091064   C274.638062,277.016998 255.277359,276.942963 235.006042,276.862061   C226.963501,277.418213 220.129303,277.357971 217.331024,268.847931   C216.671356,267.398926 216.011703,265.949951 215.111847,264.254150  z"
     id="path6" />
</svg>
