<svg xmlns="http://www.w3.org/2000/svg" viewBox="0 0 1024 1024" width="1024" height="1024">
  <defs>
    <linearGradient id="brainGradient" x1="0%" y1="0%" x2="0%" y2="100%">
      <stop offset="0%" stop-color="#d7e522"/>
      <stop offset="18%" stop-color="#7eca3e"/>
      <stop offset="38%" stop-color="#2fae63"/>
      <stop offset="55%" stop-color="#1f9689"/>
      <stop offset="75%" stop-color="#1179b0"/>
      <stop offset="100%" stop-color="#0d59a8"/>
    </linearGradient>
  </defs>
  <g transform="translate(0,1024) scale(0.1,-0.1)" fill="url(#brainGradient)" stroke="none">
    <path d="M4515 7140 c-176 -37 -340 -160 -413 -310 -35 -72 -37 -80 -42 -208
-6 -154 -10 -162 -92 -162 -47 0 -70 13 -94 52 -22 35 -67 58 -116 58 -84 0
-138 -42 -158 -122 -11 -43 -10 -52 11 -95 33 -65 68 -88 134 -88 44 0 61 6
98 33 42 30 50 32 100 26 85 -10 158 3 218 39 80 48 92 77 100 232 5 103 10
138 26 170 29 56 98 121 163 153 48 24 67 27 150 27 108 0 154 -17 207 -79 44
-49 53 -107 53 -332 l0 -195 88 4 87 4 -1 269 c0 259 -1 271 -23 322 -31 69
-121 153 -198 183 -64 25 -224 35 -298 19z M5470 7134 c-120 -32 -224 -125
-255 -228 -12 -38 -15 -108 -15 -307 l0 -257 83 -4 c45 -2 85 -2 90 0 4 2 7
103 7 225 0 194 3 227 19 262 39 86 127 130 244 123 128 -8 234 -74 292 -179
25 -47 29 -65 34 -179 7 -140 18 -168 81 -215 57 -42 123 -58 211 -52 75 5 80
4 114 -23 108 -86 245 -18 245 120 0 73 -45 130 -119 150 -61 16 -109 -2 -162
-59 -43 -46 -51 -51 -91 -51 -24 0 -54 7 -67 16 -22 16 -22 20 -16 108 11 144
-12 229 -92 339 -67 92 -226 190 -351 216 -72 15 -185 13 -252 -5z M3895 6849
c-309 -21 -553 -155 -647 -356 -19 -40 -37 -64 -51 -69 -12 -3 -52 -24 -89
-45 -272 -159 -457 -463 -458 -750 0 -101 33 -171 99 -206 l44 -23 424 0 423
0 0 85 0 85 -382 2 -383 3 4 65 c8 148 70 307 167 424 79 96 214 186 302 201
40 6 41 8 52 60 41 199 203 327 440 351 l71 7 41 61 c22 33 49 71 60 82 18 20
18 22 1 25 -10 3 -63 1 -118 -2z M6200 6847 c0 -4 18 -30 40 -59 22 -29 46
-65 52 -79 11 -24 18 -27 87 -32 242 -17 433 -180 458 -389 6 -46 6 -47 47
-53 103 -17 249 -117 335 -231 75 -101 139 -283 141 -401 l0 -33 -429 0 -429
0 -4 -81 c-2 -44 -1 -83 1 -85 2 -2 214 -4 471 -4 487 0 511 2 559 44 88 78
80 308 -19 513 -95 196 -296 392 -460 447 -29 10 -40 23 -68 82 -49 100 -170
217 -283 273 -117 57 -218 81 -371 88 -71 3 -128 3 -128 0z M4546 6830 c-88
-27 -124 -135 -71 -213 24 -34 26 -44 23 -138 l-3 -102 -285 -143 c-378 -190
-368 -186 -508 -183 l-113 3 -26 34 c-26 35 -112 82 -148 82 -142 0 -246 -164
-186 -295 65 -144 267 -153 351 -15 l25 39 127 1 127 0 400 199 c219 110 403
206 407 212 4 7 10 73 12 147 4 124 6 136 29 160 29 31 37 62 29 106 -16 86
-100 132 -190 106z m-1103 -801 c30 -16 37 -28 37 -70 0 -86 -110 -103 -141
-22 -24 64 44 123 104 92z M5583 6820 c-23 -12 -50 -33 -59 -48 -26 -40 -24
-113 4 -151 20 -28 22 -41 22 -160 l0 -130 30 -21 c17 -12 162 -89 323 -171
537 -276 517 -267 662 -268 l60 -1 25 -47 c34 -65 96 -103 167 -103 176 0 266
195 150 327 -79 90 -192 95 -282 12 l-42 -39 -97 0 -97 0 -359 183 -360 182 0
98 c0 88 2 102 24 130 92 122 -35 276 -171 207z m1288 -851 c49 -49 -2 -139
-70 -124 -36 8 -54 36 -53 79 2 59 80 88 123 45z M5071 6151 c-5 -4 -66 -204
-134 -446 -69 -242 -146 -514 -172 -605 -26 -91 -48 -171 -48 -178 -3 -19 215
-19 225 0 4 7 52 173 107 368 54 195 132 467 171 603 40 137 69 251 66 254 -8
9 -202 12 -215 4z M5390 5862 l0 -117 256 -120 c140 -66 262 -121 270 -123 8
-2 14 -7 14 -10 -1 -4 -56 -31 -123 -61 -67 -30 -188 -86 -269 -125 l-148 -69
0 -119 c0 -119 0 -119 23 -112 20 6 659 311 767 366 51 26 57 45 45 153 l-6
60 -187 89 c-103 49 -289 138 -414 197 l-228 108 0 -117z M4585 5931 c-75 -34
-729 -344 -733 -346 -6 -5 -9 -183 -3 -193 3 -6 36 -24 71 -40 36 -16 215
-102 397 -191 183 -88 337 -161 343 -161 7 0 10 40 8 118 l-3 117 -90 45 c-83
42 -175 86 -365 174 l-75 35 150 71 c83 39 202 97 265 128 l115 57 3 108 c2
82 0 107 -10 107 -7 -1 -40 -13 -73 -29z M2629 5344 c-87 -202 -84 -444 7
-627 108 -216 359 -372 725 -453 105 -23 154 -28 322 -32 189 -4 198 -5 209
-25 17 -33 107 -124 158 -162 161 -118 408 -185 684 -185 l126 0 0 -280 c0
-154 3 -280 6 -280 4 0 79 53 167 118 216 157 365 256 462 305 l80 41 180 7
c198 7 226 14 381 89 168 81 330 213 409 333 36 55 39 57 81 57 72 0 263 29
363 56 564 148 786 482 645 969 -15 50 -30 94 -35 100 -6 5 -25 -7 -52 -32
-23 -22 -57 -48 -75 -58 -25 -12 -32 -21 -27 -33 38 -90 43 -244 11 -349 -56
-181 -277 -346 -504 -378 -28 -4 -62 -15 -74 -25 -68 -52 -202 -90 -320 -90
l-64 0 -37 -66 c-74 -127 -222 -262 -372 -337 -128 -64 -192 -78 -365 -81
l-155 -2 -85 -38 c-119 -53 -261 -129 -356 -192 -44 -30 -83 -54 -87 -54 -4 0
-7 131 -7 290 l0 290 -85 0 -84 0 -3 -77 -3 -78 -105 -1 c-277 -3 -448 45
-560 156 -57 57 -90 125 -90 185 0 53 -9 58 -84 44 -38 -6 -86 -9 -108 -6 -30
4 -54 -1 -103 -25 -152 -70 -365 -35 -428 71 -16 27 -24 31 -61 31 -24 0 -78
9 -122 20 -243 61 -401 221 -435 439 -10 69 -7 124 17 261 5 33 3 36 -32 55
-21 11 -50 37 -66 59 l-28 39 -21 -49z M3169 5280 c-84 -15 -153 -90 -165
-183 -6 -38 -2 -56 20 -102 46 -94 154 -137 250 -101 41 16 126 93 126 115 0
6 82 11 198 13 l197 4 95 41 c52 23 96 45 97 50 3 8 -83 65 -119 78 -9 4 -46
-3 -83 -14 -56 -18 -93 -21 -229 -21 l-161 0 -24 35 c-42 62 -127 98 -202 85z
m85 -141 c37 -29 37 -89 0 -118 -15 -12 -38 -21 -51 -21 -34 0 -73 42 -73 80
0 38 39 80 73 80 13 0 36 -9 51 -21z M6977 5276 c-44 -16 -72 -39 -95 -78
l-16 -28 -268 0 c-210 0 -277 3 -311 15 -43 14 -44 14 -111 -21 -38 -20 -64
-40 -59 -45 5 -5 43 -27 86 -49 l78 -40 292 0 292 0 28 -35 c97 -121 284 -83
316 65 15 70 0 123 -48 171 -33 33 -92 60 -131 59 -8 -1 -32 -7 -53 -14z
M4178 5055 c-2 -2 -3 -58 -2 -124 l1 -120 -196 -3 -196 -3 -36 36 c-117 117
-311 44 -311 -116 0 -93 66 -164 162 -173 60 -6 131 25 157 69 l17 29 236 0
236 0 55 -41 c74 -56 218 -144 287 -176 54 -26 66 -27 250 -31 l192 -4 0 151
0 151 -85 0 -85 0 0 -75 0 -75 -67 0 c-113 1 -268 70 -391 175 l-42 37 0 118
0 118 -89 30 c-49 17 -91 29 -93 27z M5838 5027 c-54 -18 -96 -36 -95 -41 2
-5 101 -63 221 -129 l219 -121 -6 -79 c-10 -154 -87 -254 -225 -297 -57 -18
-93 -20 -323 -20 l-259 0 0 221 c0 198 -2 220 -16 215 -9 -3 -47 -6 -85 -6
l-69 0 0 -416 0 -416 28 5 c15 4 55 12 90 18 l62 12 0 89 0 88 263 0 c298 0
359 9 474 65 85 42 156 108 201 186 35 62 62 154 62 214 l0 41 44 -1 c37 -1
48 -6 72 -34 29 -35 94 -70 129 -71 81 0 148 49 171 125 26 90 -9 169 -90 206
-79 36 -157 20 -213 -45 -27 -29 -39 -36 -70 -36 -21 0 -54 8 -73 19 -147 79
-369 206 -386 222 -11 10 -22 19 -25 18 -2 0 -48 -15 -101 -32z"/>
  </g>
</svg>